<svg xmlns="http://www.w3.org/2000/svg" viewBox="0 0 782.57 187.21"><defs><style>.cls-1{opacity:0.2;}.cls-2{fill:#171a30;stroke:#fff;stroke-miterlimit:10;stroke-width:3.68px;fill-rule:evenodd;}</style></defs><title>subtit-bg</title><g id="Layer_2" data-name="Layer 2"><g class="cls-1"><path class="cls-2" d="M89.91,95c-7.74,9.21-10.46,19.23-7.09,30.64A27.89,27.89,0,0,0,87.89,136c1.69,2,3.64,3.86,6.45,3.12s3.84-3.4,4.54-6.07c1.79-6.94,1.29-13.8-.18-20.64C97.29,105.84,93.84,100.43,89.91,95Z"/><path class="cls-2" d="M68.58,108.15c0-2.46,0-4.84.19-7.19.63-6.34,3.54-11.66,7.37-16.57a4.53,4.53,0,0,0,1-2.81A49,49,0,0,0,72.34,65.2a7.48,7.48,0,0,0-.69-1c-9.9,8-14.06,18.23-12.12,30.92.6,3.91,1.57,7.68,4,10.79C64.86,107.47,66.38,108.6,68.58,108.15Z"/><path class="cls-2" d="M80.47,122.32c-.15-3.25-.48-6-.36-8.68.26-6,2.58-11.23,5.83-16.09a4,4,0,0,0,.67-3.45,50.1,50.1,0,0,0-7-16.26,33.1,33.1,0,0,0-8.71,13c-3.09,8.86-2,17.42,1.86,25.56a17.42,17.42,0,0,0,4.36,5C77.89,122.09,79.26,122,80.47,122.32Z"/><path class="cls-2" d="M109.53,148.66c-.62-2.88-1.31-5.25-1.61-7.68-.65-5.33.63-10.37,2.81-15.18a3.62,3.62,0,0,0,.08-3.16,45,45,0,0,0-8.62-13.44A30,30,0,0,0,96.37,122c-1.44,8.34.75,15.8,5.44,22.47a15.67,15.67,0,0,0,4.62,3.83C107.2,148.83,108.41,148.57,109.53,148.66Z"/><path class="cls-2" d="M121.91,156.39c-.92-2.77-1.87-5-2.43-7.41-1.24-5.21-.52-10.34,1.1-15.33a3.59,3.59,0,0,0-.27-3.15,44.87,44.87,0,0,0-10-12.34A29.72,29.72,0,0,0,106,131.5c-.51,8.41,2.48,15.56,7.85,21.63a15.58,15.58,0,0,0,5,3.29C119.63,156.82,120.79,156.43,121.91,156.39Z"/><path class="cls-2" d="M64.52,49.29c-1.83,1.56-3.57,2.93-5.17,4.45-9.68,9.09-10.69,23.15-7.47,33a11.86,11.86,0,0,0,2.42,4.21c.89,1,2.32,1.4,3.83,2.25.17-2.12.25-3.59.4-5.06.76-7.45,4.42-13.34,9.39-18.58a4.36,4.36,0,0,0,1.16-2.73C68.94,60.75,68,54.89,64.52,49.29Z"/><path class="cls-2" d="M61.89,35.78c-2,1.28-3.93,2.38-5.73,3.64C45.36,47,42.39,60.79,44.19,71A12.12,12.12,0,0,0,46,75.57c.74,1.1,2.09,1.74,3.47,2.81.45-2.08.74-3.53,1.09-5,1.8-7.28,6.23-12.58,11.86-17a4.27,4.27,0,0,0,1.52-2.54C64.65,47.82,64.56,41.87,61.89,35.78Z"/><path class="cls-2" d="M125,127.67c-5.26,8.08-6.73,16.41-3.59,25.36a22.44,22.44,0,0,0,4.35,7.95c1.38,1.49,2.94,2.83,5,2s2.68-3.06,3-5.28A38.56,38.56,0,0,0,132.52,141C131.1,135.81,128.23,131.71,125,127.67Z"/><path class="cls-2" d="M44.82,121.12c5.23,7.51,11,14.19,19.18,18a32.6,32.6,0,0,0,17.6,3,14.32,14.32,0,0,0,4.77-1.49c3.18-1.58,4-4.48,2.25-7.6a19.73,19.73,0,0,0-8.55-7.65A120.42,120.42,0,0,0,68,120C62.1,117.67,50.63,118.33,44.82,121.12Z"/><path class="cls-2" d="M13.42,62.23a57.27,57.27,0,0,0,6.29,14.45,70.77,70.77,0,0,0,4.53,6.2,2.42,2.42,0,0,0,1.66,1,38.18,38.18,0,0,1,25.15,7.53,5.65,5.65,0,0,0,.34-6.45,42.41,42.41,0,0,0-5.48-8C41.39,71.88,36.33,67.5,30,65A42,42,0,0,0,13.42,62.23Z"/><path class="cls-2" d="M8.67,41.23a57.3,57.3,0,0,0,4.89,15,70.53,70.53,0,0,0,3.93,6.58,2.47,2.47,0,0,0,1.57,1.11A38.11,38.11,0,0,1,43.4,73.72a5.64,5.64,0,0,0,1-6.39,41.85,41.85,0,0,0-4.69-8.51c-4-5.4-8.66-10.23-14.73-13.3A42.09,42.09,0,0,0,8.67,41.23Z"/><path class="cls-2" d="M59.91,105.6c1-2.65.19-4.69-1.09-6.57-2.25-3.32-5.4-5.58-8.62-7.75C40.88,85,30.83,82.14,19.67,84.53c-.78.16-1.54.38-2.86.72,2.5,3.56,4.61,7,7.17,10.06a85.7,85.7,0,0,0,7.86,7.62,2.54,2.54,0,0,0,2,.59A37.62,37.62,0,0,1,59.91,105.6Z"/><path class="cls-2" d="M27.71,102.67a61.41,61.41,0,0,0,11.91,13.86c3,2.59,5.77,3.64,9.87,2.29a31.39,31.39,0,0,1,20.45.53,9.37,9.37,0,0,0,1.16.29,6.88,6.88,0,0,0,.75.07,4.56,4.56,0,0,0-.7-4.88,37.18,37.18,0,0,0-6.42-6.25,46.09,46.09,0,0,0-16.88-7.48C41.11,99.66,34.46,100.43,27.71,102.67Z"/><path class="cls-2" d="M61.76,136.35a61.25,61.25,0,0,0,11.91,13.87c3,2.59,5.77,3.63,9.87,2.29A31.45,31.45,0,0,1,104,153a7.91,7.91,0,0,0,1.16.3,5.18,5.18,0,0,0,.75.06,4.54,4.54,0,0,0-.7-4.87,36.82,36.82,0,0,0-6.42-6.25,46.13,46.13,0,0,0-16.89-7.48C75.16,133.35,68.51,134.12,61.76,136.35Z"/><path class="cls-2" d="M80.52,150.49a55.26,55.26,0,0,0,12.92,10.13c3,1.76,5.72,2.19,9.1.28a28.22,28.22,0,0,1,18.1-3.12,9.77,9.77,0,0,0,1.08.06,6.5,6.5,0,0,0,.66-.08,4.08,4.08,0,0,0-1.47-4.17,33.33,33.33,0,0,0-6.75-4.38A41.56,41.56,0,0,0,98,145.58,33.85,33.85,0,0,0,80.52,150.49Z"/><path class="cls-2" d="M96,165.86c6.23,3.11,12.51,5.46,19.38,5.06a25,25,0,0,0,12.83-4.45,10.89,10.89,0,0,0,2.64-2.73c1.54-2.21,1-4.45-1.27-5.9a15.05,15.05,0,0,0-8.5-2,90.76,90.76,0,0,0-10,.77C106.26,157.26,98.85,161.88,96,165.86Z"/><path class="cls-2" d="M33.71,11.6c-5.16,10.25-7.16,20.66-3.8,31.68,1.49,4.88,3.34,9.58,6.71,13.42a14.38,14.38,0,0,0,2.69,2.42C42.06,61,45,60.22,46,57a30.27,30.27,0,0,0,1.49-8.54A51.51,51.51,0,0,0,34.79,12.69C34.5,12.34,34.15,12,33.71,11.6Z"/></g><g class="cls-1"><path class="cls-2" d="M688.84,95c7.74,9.21,10.45,19.23,7.09,30.64A27.89,27.89,0,0,1,690.86,136c-1.7,2-3.64,3.86-6.46,3.12s-3.84-3.4-4.53-6.07c-1.79-6.94-1.29-13.8.18-20.64C681.45,105.84,684.9,100.43,688.84,95Z"/><path class="cls-2" d="M710.17,108.15c-.06-2.46,0-4.84-.2-7.19-.63-6.34-3.53-11.66-7.36-16.57a4.49,4.49,0,0,1-1-2.81A49.43,49.43,0,0,1,706.4,65.2a8.5,8.5,0,0,1,.69-1c9.9,8,14.06,18.23,12.12,30.92-.6,3.91-1.56,7.68-4.05,10.79C713.89,107.47,712.36,108.6,710.17,108.15Z"/><path class="cls-2" d="M698.27,122.32c.16-3.25.48-6,.37-8.68-.26-6-2.58-11.23-5.83-16.09a4,4,0,0,1-.67-3.45,50.08,50.08,0,0,1,7-16.26,32.89,32.89,0,0,1,8.71,13c3.09,8.86,2.06,17.42-1.85,25.56a17.73,17.73,0,0,1-4.36,5C700.85,122.09,699.48,122,698.27,122.32Z"/><path class="cls-2" d="M669.21,148.66c.62-2.88,1.32-5.25,1.61-7.68.66-5.33-.63-10.37-2.8-15.18a3.59,3.59,0,0,1-.08-3.16,44.94,44.94,0,0,1,8.61-13.44A29.85,29.85,0,0,1,682.38,122c1.44,8.34-.76,15.8-5.44,22.47a15.84,15.84,0,0,1-4.63,3.83C671.55,148.83,670.34,148.57,669.21,148.66Z"/><path class="cls-2" d="M656.83,156.39c.93-2.77,1.88-5,2.44-7.41,1.23-5.21.52-10.34-1.11-15.33a3.62,3.62,0,0,1,.28-3.15,44.65,44.65,0,0,1,10-12.34,29.48,29.48,0,0,1,4.35,13.34c.51,8.41-2.48,15.56-7.84,21.63a15.52,15.52,0,0,1-5,3.29C659.12,156.82,658,156.43,656.83,156.39Z"/><path class="cls-2" d="M714.23,49.29c1.82,1.56,3.56,2.93,5.17,4.45,9.67,9.09,10.69,23.15,7.47,33a11.86,11.86,0,0,1-2.42,4.21c-.89,1-2.32,1.4-3.83,2.25-.17-2.12-.25-3.59-.4-5.06-.77-7.45-4.43-13.34-9.4-18.58a4.4,4.4,0,0,1-1.15-2.73C709.8,60.75,710.73,54.89,714.23,49.29Z"/><path class="cls-2" d="M716.86,35.78c2,1.28,3.92,2.38,5.72,3.64,10.81,7.58,13.78,21.37,12,31.62a12.11,12.11,0,0,1-1.8,4.53c-.75,1.1-2.1,1.74-3.47,2.81-.46-2.08-.74-3.53-1.1-5-1.79-7.28-6.22-12.58-11.86-17a4.38,4.38,0,0,1-1.52-2.54C714.09,47.82,714.18,41.87,716.86,35.78Z"/><path class="cls-2" d="M653.75,127.67c5.27,8.08,6.74,16.41,3.59,25.36A22.13,22.13,0,0,1,653,161c-1.37,1.49-2.93,2.83-5,2s-2.68-3.06-3-5.28A38.56,38.56,0,0,1,646.23,141C647.65,135.81,650.52,131.71,653.75,127.67Z"/><path class="cls-2" d="M733.92,121.12c-5.22,7.51-11,14.19-19.17,18a32.64,32.64,0,0,1-17.61,3,14.39,14.39,0,0,1-4.77-1.49c-3.18-1.58-4-4.48-2.25-7.6a19.79,19.79,0,0,1,8.55-7.65A120.59,120.59,0,0,1,710.73,120C716.65,117.67,728.11,118.33,733.92,121.12Z"/><path class="cls-2" d="M765.33,62.23A57.27,57.27,0,0,1,759,76.68a70.77,70.77,0,0,1-4.53,6.2,2.42,2.42,0,0,1-1.67,1,38.16,38.16,0,0,0-25.14,7.53,5.61,5.61,0,0,1-.34-6.45,41.9,41.9,0,0,1,5.47-8c4.52-5,9.58-9.38,15.91-11.89A42.13,42.13,0,0,1,765.33,62.23Z"/><path class="cls-2" d="M770.08,41.23a57.32,57.32,0,0,1-4.9,15,70.53,70.53,0,0,1-3.93,6.58,2.44,2.44,0,0,1-1.57,1.11,38.09,38.09,0,0,0-24.33,9.83,5.63,5.63,0,0,1-1-6.39,41.85,41.85,0,0,1,4.69-8.51c4-5.4,8.66-10.23,14.73-13.3A42,42,0,0,1,770.08,41.23Z"/><path class="cls-2" d="M718.83,105.6c-1-2.65-.18-4.69,1.1-6.57,2.24-3.32,5.39-5.58,8.61-7.75,9.33-6.29,19.37-9.14,30.54-6.75.77.16,1.53.38,2.85.72-2.5,3.56-4.61,7-7.17,10.06a84.44,84.44,0,0,1-7.86,7.62,2.52,2.52,0,0,1-2,.59A37.65,37.65,0,0,0,718.83,105.6Z"/><path class="cls-2" d="M751,102.67a61.7,61.7,0,0,1-11.92,13.86c-2.94,2.59-5.76,3.64-9.87,2.29a31.36,31.36,0,0,0-20.44.53,9.52,9.52,0,0,1-1.17.29,6.64,6.64,0,0,1-.75.07,4.58,4.58,0,0,1,.7-4.88,37.91,37.91,0,0,1,6.42-6.25,46.21,46.21,0,0,1,16.89-7.48C737.63,99.66,744.28,100.43,751,102.67Z"/><path class="cls-2" d="M717,136.35a61.5,61.5,0,0,1-11.91,13.87c-3,2.59-5.77,3.63-9.87,2.29a31.45,31.45,0,0,0-20.45.52,8.25,8.25,0,0,1-1.16.3,5.18,5.18,0,0,1-.75.06,4.54,4.54,0,0,1,.7-4.87,36.82,36.82,0,0,1,6.42-6.25,46.06,46.06,0,0,1,16.89-7.48C703.59,133.35,710.24,134.12,717,136.35Z"/><path class="cls-2" d="M698.22,150.49a55,55,0,0,1-12.91,10.13c-3.06,1.76-5.73,2.19-9.1.28a28.24,28.24,0,0,0-18.1-3.12,9.77,9.77,0,0,1-1.08.06c-.2,0-.4-.05-.67-.08a4.08,4.08,0,0,1,1.47-4.17,33.33,33.33,0,0,1,6.75-4.38,41.61,41.61,0,0,1,16.19-3.63A33.82,33.82,0,0,1,698.22,150.49Z"/><path class="cls-2" d="M682.75,165.86c-6.22,3.11-12.5,5.46-19.37,5.06a24.92,24.92,0,0,1-12.83-4.45,10.72,10.72,0,0,1-2.64-2.73c-1.54-2.21-1-4.45,1.27-5.9a15,15,0,0,1,8.49-2,90.57,90.57,0,0,1,10,.77C672.48,157.26,679.9,161.88,682.75,165.86Z"/><path class="cls-2" d="M745,11.6c5.16,10.25,7.17,20.66,3.81,31.68-1.5,4.88-3.34,9.58-6.71,13.42a15,15,0,0,1-2.69,2.42c-2.75,1.87-5.65,1.1-6.71-2.15a30.62,30.62,0,0,1-1.48-8.54A51.51,51.51,0,0,1,744,12.69C744.25,12.34,744.59,12,745,11.6Z"/></g></g></svg>